<?xml version="1.0" standalone="no"?>
<!DOCTYPE svg PUBLIC "-//W3C//DTD SVG 20010904//EN"
 "http://www.w3.org/TR/2001/REC-SVG-20010904/DTD/svg10.dtd">
<svg version="1.0" xmlns="http://www.w3.org/2000/svg"
 width="500.000000pt" height="500.000000pt" viewBox="0 0 500.000000 500.000000"
 preserveAspectRatio="xMidYMid meet">
<metadata>
Created by potrace 1.14, written by Peter Selinger 2001-2017
</metadata>
<g transform="translate(0.000000,500.000000) scale(0.100000,-0.100000)"
fill="#000000" stroke="none">
<path d="M2214 4984 c-574 -69 -1072 -311 -1480 -718 -391 -392 -624 -857
-711 -1416 -25 -161 -25 -539 0 -700 70 -452 235 -837 515 -1200 96 -123 319
-342 452 -441 350 -262 725 -419 1160 -486 161 -25 539 -25 700 0 555 86 1026
322 1415 712 389 389 626 861 712 1415 25 161 25 539 0 700 -70 452 -234 836
-515 1200 -36 47 -127 146 -201 220 -478 477 -1103 733 -1776 729 -88 -1 -210
-7 -271 -15z m671 -243 c447 -79 851 -282 1178 -591 723 -685 915 -1774 470
-2664 -115 -230 -241 -404 -428 -591 -342 -343 -756 -555 -1250 -642 -142 -25
-568 -25 -710 0 -383 67 -719 212 -1024 440 -123 91 -335 304 -428 429 -228
303 -375 644 -438 1018 -22 129 -31 448 -16 591 77 740 508 1395 1156 1756
252 140 551 237 840 272 139 17 512 6 650 -18z"/>
<path d="M984 3865 c-165 -36 -307 -151 -388 -315 -80 -163 -90 -218 -89 -480
0 -184 4 -240 19 -310 l20 -85 591 -3 592 -2 16 57 c34 115 45 190 45 306 0
269 -85 473 -276 663 -104 104 -172 143 -296 168 -91 19 -151 19 -234 1z m241
-151 c28 -9 52 -19 54 -21 3 -2 -18 -24 -46 -48 -65 -57 -83 -96 -83 -178 0
-111 44 -194 128 -240 97 -53 202 -43 294 27 l46 35 13 -47 c16 -53 19 -272 6
-365 l-8 -57 -487 2 -487 3 -13 60 c-6 33 -12 114 -13 180 -1 331 137 590 354
661 53 18 174 12 242 -12z"/>
<path d="M3094 3840 c-208 -54 -364 -191 -478 -417 -65 -130 -81 -206 -81
-383 0 -130 4 -170 24 -245 13 -49 27 -98 33 -108 8 -16 49 -17 690 -15 l682
3 18 70 c38 150 44 334 17 485 -58 315 -257 534 -553 610 -103 26 -253 26
-352 0z m370 -143 l39 -17 -55 -58 c-45 -47 -58 -68 -67 -110 -14 -69 -14 -78
5 -141 22 -76 90 -146 160 -167 86 -25 196 4 267 70 15 14 30 26 32 26 2 0 11
-34 21 -76 19 -87 16 -314 -6 -371 l-12 -33 -578 0 -577 0 -18 61 c-11 39 -16
95 -16 158 2 309 207 588 491 666 75 20 260 15 314 -8z"/>
<path d="M630 2200 l0 -70 89 0 88 0 12 -107 c94 -837 590 -1379 1376 -1504
120 -20 417 -17 550 5 283 46 566 163 775 319 84 63 229 214 283 295 204 305
245 645 126 1030 l-32 102 -1634 0 -1633 0 0 -70z m2365 -844 c110 -36 213
-95 291 -168 76 -72 158 -182 151 -202 -10 -24 -157 -122 -262 -174 -328 -163
-728 -210 -1075 -126 -58 13 -111 28 -118 33 -30 19 52 233 132 344 114 159
279 266 479 312 101 23 302 14 402 -19z"/>
</g>
</svg>
